<?xml version="1.0" encoding="utf-8"?>
<!-- Generator: Adobe Illustrator 27.5.0, SVG Export Plug-In . SVG Version: 6.00 Build 0)  -->
<svg version="1.1" xmlns="http://www.w3.org/2000/svg" xmlns:xlink="http://www.w3.org/1999/xlink" x="0px" y="0px"
	 viewBox="0 0 500 500" style="enable-background:new 0 0 500 500;" xml:space="preserve">
<g id="BACKGROUND">
	<ellipse style="fill:#F5F5FF;" cx="239.112" cy="250.856" rx="167.4" ry="168.288"/>
</g>
<g id="OBJECTS">
	<g>
		<polygon style="fill:#53CFC1;" points="260.476,262.871 227.944,262.871 260.954,308.293 		"/>
		<rect x="260.476" y="47.937" style="fill:#53CFC1;" width="180.82" height="262.726"/>
		<rect x="260.476" y="82.05" style="fill:#E9E8FC;" width="180.82" height="180.82"/>
		<circle style="fill:#FFFFFF;" cx="278.941" cy="64.994" r="10.79"/>
		<path style="fill:#FFFFFF;" d="M285.876,278.665c0,3.83-3.105,6.934-6.934,6.934c-3.83,0-6.934-3.105-6.934-6.934
			c0-3.83,3.105-6.934,6.934-6.934C282.771,271.73,285.876,274.835,285.876,278.665z"/>
		<path style="fill:#FFFFFF;" d="M304.951,278.665c0,3.83-3.105,6.934-6.934,6.934c-3.83,0-6.934-3.105-6.934-6.934
			c0-3.83,3.105-6.934,6.934-6.934C301.846,271.73,304.951,274.835,304.951,278.665z"/>
		<path style="fill:#FFFFFF;" d="M324.025,278.665c0,3.83-3.105,6.934-6.934,6.934c-3.83,0-6.934-3.105-6.934-6.934
			c0-3.83,3.105-6.934,6.934-6.934C320.921,271.73,324.025,274.835,324.025,278.665z"/>
		<path style="fill:#FFFFFF;" d="M421.092,64.994c0,0.864-0.7,1.564-1.564,1.564c-0.864,0-1.564-0.7-1.564-1.564
			c0-0.864,0.7-1.564,1.564-1.564C420.392,63.43,421.092,64.13,421.092,64.994z"/>
		<path style="fill:#FFFFFF;" d="M426.167,64.994c0,0.864-0.7,1.564-1.564,1.564c-0.864,0-1.564-0.7-1.564-1.564
			c0-0.864,0.7-1.564,1.564-1.564C425.467,63.43,426.167,64.13,426.167,64.994z"/>
		<path style="fill:#FFFFFF;" d="M431.242,64.994c0,0.864-0.7,1.564-1.564,1.564c-0.864,0-1.564-0.7-1.564-1.564
			c0-0.864,0.7-1.564,1.564-1.564C430.542,63.43,431.242,64.13,431.242,64.994z"/>
		<path style="fill:#D4D3E6;" d="M281.741,62.86c0,1.546-1.254,2.8-2.8,2.8c-1.546,0-2.8-1.254-2.8-2.8c0-1.547,1.254-2.8,2.8-2.8
			C280.487,60.06,281.741,61.314,281.741,62.86z"/>
		<path style="fill:#D4D3E6;" d="M283.347,70.05h-8.82c0.03-2.41,2-4.36,4.41-4.36C281.357,65.69,283.317,67.64,283.347,70.05z"/>
		<g>
			<rect x="297.428" y="110.738" style="fill:#FFFFFF;" width="90.249" height="90.249"/>
			<circle style="fill:#F05662;" cx="390.351" cy="144.077" r="23.792"/>
			<polygon style="fill:#F6B000;" points="349.947,178.021 365.98,205.792 382.014,233.564 349.947,233.564 317.879,233.564 
				333.913,205.792 			"/>
			<circle style="fill:none;stroke:#131B3D;stroke-linecap:round;stroke-miterlimit:10;" cx="297.573" cy="157.261" r="10.364"/>
			
				<line style="fill:none;stroke:#131B3D;stroke-linecap:round;stroke-miterlimit:10;" x1="402.65" y1="210.198" x2="402.65" y2="225.794"/>
			
				<line style="fill:none;stroke:#131B3D;stroke-linecap:round;stroke-miterlimit:10;" x1="410.448" y1="217.996" x2="394.852" y2="217.996"/>
			<rect x="312.717" y="99.142" style="fill:#53CFC1;" width="23.976" height="23.976"/>
		</g>
		<polygon style="fill:#FFFFFF;" points="431.319,290.803 423.099,285.613 414.692,290.803 414.692,272.009 431.319,272.009 		"/>
	</g>
	<g>
		<rect x="323.188" y="338.557" style="fill:#D4D3E6;" width="100.292" height="100.293"/>
		<polygon style="fill:#E9E8FC;" points="355.477,402.761 371.511,420.823 387.545,438.884 355.477,438.884 323.41,438.884 
			339.444,420.823 		"/>
		<polygon style="fill:#E9E8FC;" points="401.178,414.546 412.033,426.716 422.887,438.884 401.178,438.884 379.47,438.884 
			390.324,426.716 		"/>
		
			<ellipse transform="matrix(0.2306 -0.973 0.973 0.2306 -50.5721 669.6452)" style="fill:#E9E8FC;" cx="398.173" cy="366.803" rx="8.889" ry="8.889"/>
	</g>
	<g>
		<rect x="59.819" y="58.473" style="fill:#D4D3E6;" width="85.171" height="85.171"/>
		<circle style="fill:#E9E8FC;" cx="82.75" cy="82.266" r="8.159"/>
		<rect x="100.705" y="100.23" style="fill:#E9E8FC;" width="30.83" height="30.83"/>
	</g>
	<g>
		<path style="fill:#FF8A5C;" d="M279.664,347.58l11.164-8.032c3.276-2.357,5.431-5.965,5.954-9.967l4-30.629
			c0.431-3.303-1.762-6.379-5.026-7.047l-7.14-1.461l-26.599,45.409l16.312,11.022"/>
		<path style="fill:#F6B000;" d="M189.125,278.35l39.822,70.233l25.296-23.904l25.421,22.901l-32.262,37.033
			c-14.999,13.267-38.015,11.428-50.716-4.053l-39.113-47.67L189.125,278.35z"/>
		<path style="fill:#F6B000;" d="M77.498,271.572c18.394-6.447,50.775-12.17,50.775-12.17l39.974,5.503
			c12.288,1.691,22.187,10.925,24.728,23.066l3.306,15.793l-27.48,141.69c-0.716,3.588-3.905,6.144-7.563,6.063l-102.102-7.005
			c-3.921-0.087-6.949-3.475-6.597-7.381l9.625-145.116C62.325,284.436,68.715,274.65,77.498,271.572z"/>
		<path style="fill:#FF8A5C;" d="M137.413,280.24L137.413,280.24c-8.939-2.844-13.881-12.395-11.037-21.335l10.454-39.181
			l33.555,12.894l-11.637,36.585C155.904,278.142,146.353,283.083,137.413,280.24z"/>
		<path style="fill:#131B3D;" d="M217.653,180.651c0,0,11.638,26.57-7.493,32c-19.131,5.43-9.579-34.39,5.543-32.211"/>
		<path style="fill:#131B3D;" d="M125.183,201.487c0,0-3.152-23.179,6.392-33.486c0,0,12.273-14.577,19.28,2.458
			c7.008,17.035-8.508,45.575-8.508,45.575S132.399,217.128,125.183,201.487z"/>
		<path style="fill:#FF8A5C;" d="M216.551,167.518l-6.554,71.859c-1.122,15.925-15.175,27.777-31.061,26.198l-12.64-0.319
			c-26.209,0.439-30.916-28.402-31.965-35.971l0.082,0.543l-4.847-0.193c-6.54-0.26-12.195-4.643-14.079-10.911v0
			c-2.215-7.368,3.225-14.812,10.917-14.941l9.652-0.162l5.707-32.225L216.551,167.518z"/>
		<path style="fill:#131B3D;" d="M140.493,187.138c0,0-3.347-38.231,22.732-36.058c27.287,2.274,28.03-10.588,52.963,2.737
			c14.401,7.696,14.941,29.339,3.454,40.372C195.958,216.935,147.065,202.648,140.493,187.138z"/>
		<path style="fill:#131B3D;" d="M126.404,203.783c0,0,7.231-0.77,10.24,7.368c0.811,2.194,2.439,4.017,4.642,4.804
			c6.071,2.17,17.081,1.671,16.262-31.123c0,0-10.496-16.907-19.331-12.302C129.381,177.134,126.404,203.783,126.404,203.783z"/>
		<path style="fill:#131B3D;" d="M168.365,222.462c0.036,2.546,1.472,4.591,3.208,4.566c1.736-0.024,3.114-2.108,3.079-4.654
			c-0.036-2.546-1.472-4.59-3.208-4.566C169.708,217.832,168.329,219.916,168.365,222.462z"/>
		<path style="fill:#131B3D;" d="M198.655,223.416c0.036,2.546,1.472,4.591,3.208,4.566c1.736-0.024,3.115-2.108,3.079-4.654
			c-0.036-2.546-1.472-4.59-3.208-4.566C199.997,218.786,198.619,220.87,198.655,223.416z"/>
		<path style="fill:none;stroke:#131B3D;stroke-linecap:round;stroke-miterlimit:10;" d="M120.555,214.864
			c0,0,0.853-5.396,5.993-5.53c5.141-0.134,6.918,6.945,6.918,6.945c-2.141,0.394-3.558,2.449-3.164,4.591s2.449,3.558,4.591,3.164"
			/>
		<path style="fill:none;stroke:#131B3D;stroke-linecap:round;stroke-miterlimit:10;" d="M162.516,240.476
			c-0.068,0.485-0.496,8.445,6.095,10.859"/>
		<path style="fill:none;stroke:#131B3D;stroke-linecap:round;stroke-miterlimit:10;" d="M160.48,264.525
			c0,0-8.919-0.501-13.72-13.246"/>
		<path style="fill:none;stroke:#131B3D;stroke-linecap:round;stroke-miterlimit:10;" d="M161.249,213.742
			c0,0,4.85-6.506,11.364-3.961"/>
		<path style="fill:none;stroke:#131B3D;stroke-linecap:round;stroke-miterlimit:10;" d="M198.773,209.599
			c0,0,7.369-0.635,8.052,5.429"/>
		<path style="fill:none;stroke:#131B3D;stroke-linecap:round;stroke-miterlimit:10;" d="M189.767,225.525l-0.4,6.594
			c0.271,3.285-2.274,6.122-5.568,6.21h0"/>
		<path style="fill:#F6B000;" d="M65.264,282.039L35.834,335.15c-9.399,16.903,3.253,37.594,22.582,36.93l136.014-20.187
			l5.486-32.133L65.264,282.039z"/>
		<path style="fill:#131B3D;" d="M280.458,339.946h-30.179c-2.043,0-3.56-1.891-3.117-3.885l12.861-57.874
			c0.325-1.461,1.62-2.5,3.117-2.5h30.179c2.042,0,3.56,1.891,3.116,3.885l-12.861,57.874
			C283.25,338.906,281.954,339.946,280.458,339.946z"/>
		<path style="fill:#FF8A5C;" d="M190.063,349.288l6.327-35.117l34.093-13.089l18.573-0.715c1.452-0.056,2.507,1.364,2.034,2.737
			l-0.762,2.218c-1.038,3.02-3.885,5.043-7.079,5.029l-8.836-0.038l-8.097,4.14l0.366,14.629c1.429,7.77-3.847,15.184-11.656,16.381
			L190.063,349.288z"/>
		<polyline style="fill:none;stroke:#131B3D;stroke-linecap:round;stroke-miterlimit:10;" points="195.488,314.297 98.584,326.19 
			101.117,312.802 		"/>
		<path style="fill:#FF8A5C;" d="M273.655,307.394l15.548,18.613l7.348-33.799l-11.786-3.786c-2.401-0.771-5.026,0.093-6.499,2.141
			l-4.97,6.912C271.137,300.477,271.285,304.558,273.655,307.394z"/>
		
			<line style="fill:none;stroke:#131B3D;stroke-linecap:round;stroke-miterlimit:10;" x1="189.494" y1="349.367" x2="56.929" y2="372.099"/>
		<polyline style="fill:none;stroke:#131B3D;stroke-linecap:round;stroke-miterlimit:10;" points="223.053,360.243 228.947,348.583 
			234.198,361.697 		"/>
		
			<line style="fill:none;stroke:#131B3D;stroke-linecap:round;stroke-miterlimit:10;" x1="270.922" y1="295.261" x2="289.745" y2="311.133"/>
		
			<line style="fill:none;stroke:#131B3D;stroke-linecap:round;stroke-miterlimit:10;" x1="274.107" y1="290.107" x2="294.079" y2="301.247"/>
		
			<line style="fill:none;stroke:#131B3D;stroke-linecap:round;stroke-miterlimit:10;" x1="217.446" y1="329.682" x2="226.008" y2="334.91"/>
		
			<line style="fill:none;stroke:#131B3D;stroke-linecap:round;stroke-miterlimit:10;" x1="219.609" y1="319.587" x2="226.188" y2="323.643"/>
		<g>
			<path style="fill:#F05662;" d="M164,437.16l-1.83,62.79h-47.59l-1.65-18l-6.23-0.06l-2.48,18.06H47.99
				c3.74-27.17,8.92-64.03,8.92-64.03L164,437.16z"/>
			
				<line style="fill:none;stroke:#131B3D;stroke-linecap:round;stroke-miterlimit:10;" x1="55.706" y1="465.83" x2="81.448" y2="452.018"/>
			
				<line style="fill:none;stroke:#131B3D;stroke-linecap:round;stroke-miterlimit:10;" x1="105.249" y1="478.318" x2="88.261" y2="477.928"/>
			
				<line style="fill:none;stroke:#131B3D;stroke-linecap:round;stroke-miterlimit:10;" x1="92.166" y1="484.566" x2="106.699" y2="481.892"/>
			<path style="fill:none;stroke:#131B3D;stroke-linecap:round;stroke-miterlimit:10;" d="M120.674,450.2
				c-0.136,0.407-0.742,14.758-1.1,23.485c-0.161,3.916-2.855,7.269-6.644,8.27l0,0"/>
			
				<line style="fill:none;stroke:#131B3D;stroke-linecap:round;stroke-miterlimit:10;" x1="131.023" y1="487.495" x2="116.574" y2="483.981"/>
			
				<line style="fill:none;stroke:#131B3D;stroke-linecap:round;stroke-miterlimit:10;" x1="141.567" y1="454.105" x2="161.094" y2="465.626"/>
		</g>
		<polyline style="fill:none;stroke:#131B3D;stroke-linecap:round;stroke-miterlimit:10;" points="87.078,322.508 98.584,326.19 
			86.448,332.913 		"/>
	</g>
</g>
</svg>
