<?xml version="1.0" encoding="UTF-8" standalone="no" ?>
<!DOCTYPE svg PUBLIC "-//W3C//DTD SVG 1.1//EN" "http://www.w3.org/Graphics/SVG/1.1/DTD/svg11.dtd">
<svg xmlns="http://www.w3.org/2000/svg" xmlns:xlink="http://www.w3.org/1999/xlink" version="1.1" width="1080" height="1080" viewBox="0 0 1080 1080" xml:space="preserve">
<desc>Created with Fabric.js 5.2.4</desc>
<defs>
</defs>
<rect x="0" y="0" width="100%" height="100%" fill="transparent"></rect>
<g transform="matrix(1 0 0 1 540 540)" id="7cd77fc0-9e42-4d71-bd6a-b0dedc64eff3"  >
<rect style="stroke: none; stroke-width: 1; stroke-dasharray: none; stroke-linecap: butt; stroke-dashoffset: 0; stroke-linejoin: miter; stroke-miterlimit: 4; fill: rgb(0,0,0); fill-rule: nonzero; opacity: 1; visibility: hidden;" vector-effect="non-scaling-stroke"  x="-540" y="-540" rx="0" ry="0" width="1080" height="1080" />
</g>
<g transform="matrix(1 0 0 1 540 540)" id="4fc6ccea-46b3-46be-8c30-d386a014abbb"  >
</g>
<g transform="matrix(14.37 0 0 14.37 540 540)" id="113f4937-165b-44c9-8740-c79c07a89cfb"  >
<path style="stroke: rgb(0,0,0); stroke-width: 0; stroke-dasharray: none; stroke-linecap: butt; stroke-dashoffset: 0; stroke-linejoin: miter; stroke-miterlimit: 4; fill: rgb(0,0,0); fill-rule: nonzero; opacity: 1;" vector-effect="non-scaling-stroke"  transform=" translate(-50, -50)" d="M 19.11 13.441 L 66.53 13.441 L 66.53 28.966 L 80.888 28.966 L 80.888 86.559 L 19.11 86.559 L 19.11 13.441 z M 69.711 13.494 L 80.254 26 L 69.711 26 L 69.711 13.494 z" stroke-linecap="round" />
</g>
<g transform="matrix(9.54 0 0 9.54 540 571.09)"  >
<g style="" vector-effect="non-scaling-stroke"   >
		<g transform="matrix(1 0 0 1 -8.16 -8.82)"  >
<path style="stroke: none; stroke-width: 1; stroke-dasharray: none; stroke-linecap: butt; stroke-dashoffset: 0; stroke-linejoin: miter; stroke-miterlimit: 4; fill: rgb(255,255,255); fill-rule: nonzero; opacity: 1;" vector-effect="non-scaling-stroke"  transform=" translate(-41.84, -41.18)" d="M 51.895 37.497 L 45.522000000000006 37.497 L 45.522000000000006 31.181 C 45.522000000000006 29.149 43.876000000000005 27.502000000000002 41.843 27.502000000000002 C 39.867000000000004 27.502000000000002 38.218 29.148000000000003 38.218 31.181 L 38.218 37.497 L 31.849000000000004 37.497 C 29.870000000000005 37.497 28.224000000000004 39.145 28.166000000000004 41.177 C 28.223000000000003 43.209 29.869000000000003 44.858 31.849000000000004 44.858 L 38.218 44.858 L 38.218 51.174 C 38.218 53.205 39.868 54.854 41.843 54.854 C 43.875 54.854 45.522000000000006 53.205999999999996 45.522000000000006 51.174 L 45.522000000000006 44.858 L 51.895 44.858 C 53.871 44.858 55.521 43.209999999999994 55.521 41.177 C 55.521 39.144000000000005 53.87 37.497 51.895 37.497 z" stroke-linecap="round" />
</g>
		<g transform="matrix(1 0 0 1 0 0)"  >
<path style="stroke: none; stroke-width: 1; stroke-dasharray: none; stroke-linecap: butt; stroke-dashoffset: 0; stroke-linejoin: miter; stroke-miterlimit: 4; fill: rgb(255,255,255); fill-rule: nonzero; opacity: 1;" vector-effect="non-scaling-stroke"  transform=" translate(-50, -50)" d="M 84.464 72.431 L 68.152 56.063 C 67.933 55.843 67.657 55.623000000000005 67.384 55.403000000000006 C 69.745 51.230000000000004 71.062 46.452000000000005 71.062 41.342000000000006 C 71.062 25.303000000000004 57.991 12.287000000000006 41.952 12.287000000000006 C 25.912999999999997 12.287000000000006 12.899 25.303 12.899 41.342 C 12.899 57.379999999999995 25.914 70.451 41.952999999999996 70.451 C 46.455999999999996 70.451 50.687 69.40899999999999 54.476 67.59599999999999 C 54.752 68.03699999999999 55.080999999999996 68.41899999999998 55.463 68.80499999999999 L 71.778 85.11699999999999 C 75.29400000000001 88.57999999999998 81.00500000000001 88.57999999999998 84.464 85.11699999999999 C 87.979 81.603 87.979 75.89 84.464 72.431 z M 41.953 59.247 C 32.121 59.247 24.101000000000003 51.229 24.101000000000003 41.342 C 24.101000000000003 31.509999999999998 32.121 23.491 41.953 23.491 C 51.838 23.491 59.858000000000004 31.509999999999998 59.858000000000004 41.342 C 59.857 51.229 51.838 59.247 41.953 59.247 z" stroke-linecap="round" />
</g>
</g>
</g>
<g transform="matrix(4.57 0 0 4.31 461.45 487.21)" id="df51e65a-a512-41fe-924e-bd39a1735753"  >
<circle style="stroke: rgb(0,0,0); stroke-width: 0; stroke-dasharray: none; stroke-linecap: butt; stroke-dashoffset: 0; stroke-linejoin: miter; stroke-miterlimit: 4; fill: rgb(0,0,0); fill-rule: nonzero; opacity: 1;" vector-effect="non-scaling-stroke"  cx="0" cy="0" r="35" />
</g>
</svg>